<?xml version="1.0" encoding="UTF-8" standalone="no"?>
<!-- source: https://publicdomainvectors.org/en/free-clipart/Software-testing-graphic-concept/85567.html -->
<svg
   xmlns:dc="http://purl.org/dc/elements/1.1/"
   xmlns:cc="http://creativecommons.org/ns#"
   xmlns:rdf="http://www.w3.org/1999/02/22-rdf-syntax-ns#"
   xmlns:svg="http://www.w3.org/2000/svg"
   xmlns="http://www.w3.org/2000/svg"
   width="214.20946mm"
   height="134.95299mm"
   viewBox="0 0 214.20946 134.95299"
   version="1.1"
   id="svg1809">
  <defs
     id="defs1803">
    <clipPath
       id="clipPath18"
       clipPathUnits="userSpaceOnUse">
      <path
         id="path16"
         d="M 0,600 H 600 V 0 H 0 Z" />
    </clipPath>
  </defs>
  <metadata
     id="metadata1806">
    <rdf:RDF>
      <cc:Work
         rdf:about="">
        <dc:format>image/svg+xml</dc:format>
        <dc:type
           rdf:resource="http://purl.org/dc/dcmitype/StillImage" />
        <dc:title></dc:title>
      </cc:Work>
    </rdf:RDF>
  </metadata>
  <g
     id="layer1"
     transform="translate(3.5392503,5.4884013)">
    <g
       clip-path="url(#clipPath18)"
       id="g14"
       transform="matrix(0.35277777,0,0,-0.35277777,-2.548489,172.91677)">
      <g
         id="g1121"
         style="opacity:0.996">
        <path
           id="path22"
           style="fill:#a7a3ae;fill-opacity:1;fill-rule:evenodd;stroke:none"
           d="m 300.795,151.518 c 151.607,0 275.258,17.486 275.258,38.927 0,21.442 -123.651,38.928 -275.258,38.928 -151.607,0 -275.257,-17.486 -275.257,-38.928 0,-21.441 123.65,-38.927 275.257,-38.927" />
        <path
           id="path24"
           style="fill:#ffffff;fill-opacity:1;fill-rule:evenodd;stroke:none"
           d="M 144.804,222.697 H 456.786 V 419.064 H 144.804 Z" />
        <path
           id="path26"
           style="fill:#2d2b2d;fill-opacity:1;fill-rule:evenodd;stroke:none"
           d="M 146.142,224.034 H 455.451 V 417.727 H 146.142 Z" />
        <path
           id="path28"
           style="fill:#6398d7;fill-opacity:1;fill-rule:evenodd;stroke:none"
           d="M 151.48,229.373 H 450.109 V 412.389 H 151.48 Z" />
        <path
           id="path30"
           style="fill:#ffffff;fill-opacity:1;fill-rule:evenodd;stroke:none"
           d="m 53.814,181.398 h 493.961 l -90.931,41.763 H 144.747 Z" />
        <path
           id="path32"
           style="fill:#ded9e2;fill-opacity:1;fill-rule:evenodd;stroke:none"
           d="m 112.794,200.731 h 376 l -45.71,20.995 H 158.506 Z" />
        <path
           id="path34"
           style="fill:#2d2b2d;fill-opacity:1;fill-rule:evenodd;stroke:none"
           d="m 53.814,181.398 h 493.961 l -6.554,-6.24 H 60.371 Z" />
        <path
           id="path36"
           style="fill:#ffffff;fill-opacity:1;fill-rule:evenodd;stroke:none"
           d="M 208.012,229.373 H 393.578 V 477.369 H 208.012 Z" />
        <path
           id="path38"
           style="fill:#9c9aa2;fill-opacity:1;fill-rule:evenodd;stroke:none"
           d="m 208.012,477.369 h 185.566 v -9.508 H 208.012 Z" />
        <path
           id="path40"
           style="fill:#ffffff;fill-opacity:1;fill-rule:evenodd;stroke:none"
           d="m 349.948,474.608 h 8.451 c 1.063,0 1.933,-0.869 1.933,-1.933 0,-1.063 -0.87,-1.933 -1.933,-1.933 h -8.451 c -1.063,0 -1.933,0.87 -1.933,1.933 0,1.064 0.87,1.933 1.933,1.933 m 29.769,0 h 8.451 c 1.062,0 1.933,-0.869 1.933,-1.933 0,-1.063 -0.871,-1.933 -1.933,-1.933 h -8.451 c -1.064,0 -1.934,0.87 -1.934,1.933 0,1.064 0.87,1.933 1.934,1.933 m -14.885,0 h 8.451 c 1.064,0 1.934,-0.869 1.934,-1.933 0,-1.063 -0.87,-1.933 -1.934,-1.933 h -8.451 c -1.062,0 -1.933,0.87 -1.933,1.933 0,1.064 0.871,1.933 1.933,1.933" />
        <path
           id="path42"
           style="fill:#6398d7;fill-opacity:1;fill-rule:evenodd;stroke:none"
           d="m 270.841,255.894 h 24.736 v -6.239 h -24.736 z m -17.235,13.631 h 32.313 v -6.24 h -32.313 z m -22.258,27.263 h 11.822 v -6.241 h -11.822 z m 43.91,13.63 h 40.372 v -6.24 h -40.372 z m -7.292,13.632 h 25.793 v -6.241 h -25.793 z m -15.243,13.63 h 15.3 v -6.239 h -15.3 z m 41.75,27.263 h 33.883 v -6.24 h -33.883 z m -32.14,13.632 h 11.102 v -6.241 h -11.102 z m -4.751,40.893 h 35.292 v -6.24 h -35.292 z m 7.068,13.632 h 19.386 v -6.241 H 264.65 Z m 22.648,-190.838 h 25.352 v -6.238 h -25.352 z" />
        <path
           id="path44"
           style="fill:#ded9e2;fill-opacity:1;fill-rule:evenodd;stroke:none"
           d="m 306.013,255.894 h 39.553 v -6.239 h -39.553 z m -74.665,0 h 29.055 v -6.239 h -29.055 z m -13.67,0 h 6.241 v -6.239 h -6.241 z m 78.678,13.631 h 24.577 v -6.24 h -24.577 z m -78.678,0 h 6.241 v -6.24 h -6.241 z m 99.111,13.632 h 9.998 v -6.241 h -9.998 z m -55.06,0 h 44.624 v -6.241 h -44.677 z m -30.381,0 h 19.986 l -0.055,-6.241 h -19.931 z m -13.67,0 h 6.241 v -6.241 h -6.241 z m 88.335,13.631 h 29.501 v -6.241 h -29.501 z m -52.404,0 h 41.968 v -6.241 h -41.968 z m -35.931,0 h 6.241 v -6.241 h -6.241 z m 108.389,13.63 h 36.287 v -6.24 h -36.287 z m -108.389,0 h 6.241 v -6.24 h -6.241 z m 83.132,13.632 h 6.974 v -6.241 h -6.974 z m -69.462,0 h 26.18 v -6.241 h -26.18 z m -13.67,0 h 6.241 v -6.241 h -6.241 z m 93.586,13.63 h 18.728 v -6.239 h -18.728 z m -32.805,0 h 22.368 v -6.239 h -22.368 z m -47.111,0 h 10.939 v -6.239 h -10.939 z m -13.67,0 h 6.241 v -6.239 h -6.241 z m 71.165,13.632 h 25.792 v -6.241 h -25.792 z m -25.793,0 h 15.354 v -6.241 H 263.05 Z m -45.372,0 h 6.241 v -6.241 h -6.241 z m 121.115,13.631 h 22.233 v -6.24 h -22.233 z m -66.518,0 h 11.762 v -6.24 h -11.762 z m -18.447,0 h 8.009 v -6.24 h -8.009 z m -22.48,0 h 12.042 v -6.24 h -12.042 z m -13.67,0 h 6.241 v -6.24 h -6.241 z m 66.195,13.632 h 16.954 v -6.241 h -16.954 z m -52.525,0 h 20.547 v -6.241 h -20.547 z m -13.67,0 h 6.241 v -6.241 h -6.241 z m 53.048,13.631 h 34.518 v -6.24 h -34.518 z m -21.319,0 h 10.882 v -6.24 h -10.882 z m -18.059,0 h 7.623 v -6.24 h -7.623 z m -13.67,0 h 6.241 v -6.24 h -6.241 z m 64.866,13.631 h 45.813 v -6.241 h -45.813 z m -29.823,0 h 19.387 v -6.241 h -19.387 z m -35.043,0 h 6.241 v -6.241 h -6.241 z m 13.67,13.631 h 15.795 v -6.24 h -15.795 z m -13.67,0 h 6.241 v -6.24 h -6.241 z M 317.89,433.1 h 31.066 v -6.241 H 317.89 Z m -23.416,0 h 12.98 v -6.241 h -12.98 z m -63.126,0 h 22.865 v -6.241 h -22.865 z m -13.67,0 h 6.241 v -6.241 h -6.241 z m 79.668,13.631 h 45.451 v -6.241 h -45.451 z m -49.264,0 h 38.827 V 440.49 H 248.082 Z M 217.678,242.262 h 6.241 v -6.238 h -6.241 z m 39.904,218.1 h 52.303 v -6.241 h -52.303 z m -26.234,0 h 15.796 v -6.241 h -15.796 z m -13.67,0 h 6.241 v -6.241 h -6.241 z m 0,-13.631 h 6.241 v -6.241 h -6.241 z m 26.986,-204.469 h 32.199 v -6.238 h -32.199 z" />
        <path
           id="path46"
           style="fill:#ffffff;fill-opacity:1;fill-rule:evenodd;stroke:none"
           d="m 197.189,308.012 8.494,-13.707 -28.254,-17.509 -8.496,13.707 z" />
        <path
           id="path48"
           style="fill:#2d2b2d;fill-opacity:1;fill-rule:evenodd;stroke:none"
           d="M 170.607,303.58 189.882,272.474 105.54,220.208 86.265,251.314 Z" />
        <path
           id="path50"
           style="fill:#2d2b2d;fill-opacity:1;fill-rule:evenodd;stroke:none"
           d="m 260.375,254.618 c 45.749,0 83.063,37.314 83.063,83.062 0,45.751 -37.314,83.065 -83.063,83.065 -45.75,0 -83.064,-37.314 -83.064,-83.065 0,-45.748 37.314,-83.062 83.064,-83.062" />
        <path
           id="path52"
           style="fill:#b6d8f2;fill-opacity:1;fill-rule:evenodd;stroke:none"
           d="m 260.375,281.178 c 31.12,0 56.502,25.382 56.502,56.502 0,31.122 -25.382,56.504 -56.502,56.504 -31.121,0 -56.504,-25.382 -56.504,-56.504 0,-31.12 25.383,-56.502 56.504,-56.502" />
        <path
           id="path54"
           style="fill:#6092d4;fill-opacity:1;fill-rule:evenodd;stroke:none"
           d="m 231.348,296.788 h 11.822 v -6.241 h -11.822 z m 36.618,27.262 h 25.793 v -6.241 h -25.793 z m -15.243,13.63 h 15.3 v -6.239 h -15.3 z m 9.61,40.895 h 11.102 v -6.241 h -11.102 z m 47.54,-68.157 c -1.199,-2.17 -2.537,-4.255 -4.001,-6.24 h -30.614 v 6.24 z m 0,54.525 c 1.107,-2.008 2.097,-4.091 2.96,-6.24 h -18.36 v 6.24 z" />
        <path
           id="path56"
           style="fill:#90bbe7;fill-opacity:1;fill-rule:evenodd;stroke:none"
           d="m 217.678,310.418 h 6.241 v -6.24 h -6.241 z m 83.132,13.632 h 6.974 v -6.241 h -6.974 z m -69.462,0 h 26.18 v -6.241 h -26.18 z m -13.67,0 h 6.241 v -6.241 h -6.241 z m 60.781,13.63 h 22.368 v -6.239 h -22.368 z m -47.111,0 h 10.939 v -6.239 h -10.939 z m -13.67,0 h 6.241 v -6.239 h -6.241 z m 71.165,13.632 h 25.792 v -6.241 h -25.792 z m -25.793,0 h 15.354 v -6.241 H 263.05 Z m -45.372,0 h 6.241 v -6.241 h -6.241 z m 54.597,13.631 h 11.762 v -6.24 h -11.762 z m -18.447,0 h 8.009 v -6.24 h -8.009 z m -22.48,0 h 12.042 v -6.24 h -12.042 z m -13.67,0 h 6.241 v -6.24 h -6.241 z m 13.67,13.632 h 20.547 v -6.241 h -20.547 z m 18.059,13.631 h 10.882 v -6.24 h -10.882 z m -18.059,-6.04 c 2.428,1.456 4.975,2.734 7.623,3.818 v -4.018 h -7.623 z m -13.67,-11.476 c 1.174,1.353 2.409,2.65 3.706,3.885 h 2.534 v -6.241 h -6.24 z m 6.24,-80.174 c -0.867,0.734 -1.714,1.489 -2.534,2.272 h 2.534 z m 27.405,-12.614 c -1.971,0.32 -3.908,0.739 -5.805,1.255 h 5.816 z m 23.906,1.255 c -4.321,-1.177 -8.848,-1.852 -13.517,-1.962 l 0.017,1.962 z m 20.348,10.329 c -1.3,-1.035 -2.649,-2.017 -4.038,-2.939 h -37.93 v 6.241 h 41.968 z m 21.299,44.194 c 0,-2.108 -0.119,-4.191 -0.344,-6.239 h -5.268 v 6.239 z m -17.512,40.895 c 0.497,-0.474 0.984,-0.961 1.463,-1.452 v -4.789 h -16.954 v 6.241 z m -24.135,13.631 c 5.166,-1.404 10.039,-3.519 14.504,-6.24 h -19.007 v 6.24 z" />
        <path
           id="path58"
           style="fill:#ffffff;fill-opacity:1;fill-rule:evenodd;stroke:none"
           d="m 260.375,334.43 c 18.78,0 34.098,12.305 34.098,27.393 0,15.088 -15.318,27.394 -34.098,27.394 -18.782,0 -34.101,-12.306 -34.101,-27.394 0,-15.088 15.319,-27.393 34.101,-27.393" />
        <path
           id="path60"
           style="fill:#bbddf5;fill-opacity:1;fill-rule:evenodd;stroke:none"
           d="m 263.05,351.312 h 15.354 v -6.241 H 263.05 Z m 9.225,13.631 h 11.762 v -6.24 h -11.762 z m -18.447,0 h 8.009 v -6.24 h -8.009 z m -22.48,0 h 12.042 v -6.24 h -12.042 z m 18.059,22.826 c 3.417,0.931 7.076,1.439 10.882,1.447 v -3.25 h -10.882 z m -18.059,-11.565 c 0.63,0.82 1.315,1.611 2.046,2.371 h 18.501 v -6.241 h -20.547 z m 60.521,-24.892 c -0.831,-1.605 -1.847,-3.134 -3.026,-4.568 v 4.568 z m -4.516,27.263 c 1.828,-1.898 3.354,-3.994 4.516,-6.241 h -7.996 v 6.241 z m -10.857,7.391 h -5.77 v 1.963 c 2.01,-0.514 3.939,-1.173 5.77,-1.963" />
        <path
           id="path62"
           style="fill:#b7daf4;fill-opacity:1;fill-rule:evenodd;stroke:none"
           d="m 262.333,378.575 h 11.102 v -6.241 h -11.102 z m 5.69,-43.452 c -2.459,-0.455 -5.019,-0.693 -7.649,-0.693 -2.631,0 -5.191,0.238 -7.651,0.693 v 2.557 h 15.3 z" />
      </g>
    </g>
  </g>
</svg>
